/* XPM */
static char * 0001_xpm[] = {
"25 22 292 2",
"  	c None",
". 	c #000000",
"+ 	c #090909",
"@ 	c #414143",
"# 	c #606063",
"$ 	c #0A0A0A",
"% 	c #040404",
"& 	c #070708",
"* 	c #010101",
"= 	c #050505",
"- 	c #565659",
"; 	c #DBDBE2",
"> 	c #EAEAF1",
", 	c #464648",
"' 	c #101011",
") 	c #484849",
"! 	c #78787B",
"~ 	c #1D1D1D",
"{ 	c #020202",
"] 	c #121212",
"^ 	c #B9B9BF",
"/ 	c #EFEFF6",
"( 	c #FAF9FF",
"_ 	c #A8A8AD",
": 	c #262627",
"< 	c #515153",
"[ 	c #C3C3C8",
"} 	c #FFFFFF",
"| 	c #CACACF",
"1 	c #0E0E0F",
"2 	c #1B1B1C",
"3 	c #0C0C0C",
"4 	c #101010",
"5 	c #606062",
"6 	c #D4D2D6",
"7 	c #CBC9CB",
"8 	c #CEC9C7",
"9 	c #DDD9D9",
"0 	c #9A9A9E",
"a 	c #0D0D0E",
"b 	c #030303",
"c 	c #353537",
"d 	c #98989E",
"e 	c #9B9BA1",
"f 	c #959497",
"g 	c #928B85",
"h 	c #887250",
"i 	c #AB8953",
"j 	c #C8A46C",
"k 	c #D3B17C",
"l 	c #DABE94",
"m 	c #F6E7D3",
"n 	c #3E3E40",
"o 	c #070707",
"p 	c #6D6D71",
"q 	c #A8A8AF",
"r 	c #A3A2A6",
"s 	c #7B6F5F",
"t 	c #988261",
"u 	c #AC8850",
"v 	c #CDA86F",
"w 	c #FFF2E0",
"x 	c #FFF4E2",
"y 	c #EACA99",
"z 	c #EFD9B9",
"A 	c #ACACB0",
"B 	c #1D1D1E",
"C 	c #4F4F52",
"D 	c #A1A0A5",
"E 	c #786E62",
"F 	c #A4A2A6",
"G 	c #B0A79E",
"H 	c #BE9C66",
"I 	c #E7D1B1",
"J 	c #E8D3B2",
"K 	c #FFE0A5",
"L 	c #F9D59C",
"M 	c #FDEEDA",
"N 	c #EBEAEF",
"O 	c #2E2E2F",
"P 	c #09090A",
"Q 	c #313133",
"R 	c #7F7A78",
"S 	c #826E50",
"T 	c #A6A4A7",
"U 	c #ACA399",
"V 	c #CCB38C",
"W 	c #EFEBEB",
"X 	c #DFD2C0",
"Y 	c #FFE6AE",
"Z 	c #FFE6AB",
"` 	c #FCD79C",
" .	c #F1D3A5",
"..	c #F7F7FD",
"+.	c #BBBBBF",
"@.	c #909093",
"#.	c #535355",
"$.	c #0B0B0C",
"%.	c #5E5D5F",
"&.	c #776954",
"*.	c #846F4F",
"=.	c #A09FA2",
"-.	c #AAA4A0",
";.	c #D0CAC6",
">.	c #E2E1E6",
",.	c #CFC8C1",
"'.	c #EFCF9C",
").	c #FFDCA2",
"!.	c #FFDDA2",
"~.	c #F2CE94",
"{.	c #E1C08A",
"].	c #FBF3EC",
"^.	c #F5F5FB",
"/.	c #69696B",
"(.	c #131313",
"_.	c #5E5E63",
":.	c #8D8B8F",
"<.	c #7A6545",
"[.	c #806B4A",
"}.	c #9A999C",
"|.	c #A5A5AA",
"1.	c #C2C2C8",
"2.	c #D2D1D5",
"3.	c #C3AE8E",
"4.	c #E3C18A",
"5.	c #EBC890",
"6.	c #ECC991",
"7.	c #DEBC84",
"8.	c #D0AF7B",
"9.	c #ECE1D4",
"0.	c #F9F9FE",
"a.	c #FEFEFF",
"b.	c #FCFCFF",
"c.	c #EFEFF5",
"d.	c #747477",
"e.	c #060606",
"f.	c #5D5D61",
"g.	c #8A8A90",
"h.	c #8C8A8E",
"i.	c #7E6745",
"j.	c #7B684C",
"k.	c #929194",
"l.	c #97969A",
"m.	c #B3B2B6",
"n.	c #C0C0C6",
"o.	c #C1BAB3",
"p.	c #CFB181",
"q.	c #D4B27C",
"r.	c #D2B17B",
"s.	c #C6A56F",
"t.	c #B99968",
"u.	c #DFD6CC",
"v.	c #EEEEF3",
"w.	c #EAEAF0",
"x.	c #D5D5DB",
"y.	c #9B9B9F",
"z.	c #3B3B3D",
"A.	c #626267",
"B.	c #88888E",
"C.	c #8C8B8E",
"D.	c #836D4D",
"E.	c #756244",
"F.	c #858486",
"G.	c #84807E",
"H.	c #A49581",
"I.	c #ADABAE",
"J.	c #B7B6BA",
"K.	c #B9AD9C",
"L.	c #BB9D6C",
"M.	c #B89864",
"N.	c #AC8C59",
"O.	c #A28556",
"P.	c #CCC8C6",
"Q.	c #ACACB1",
"R.	c #59595C",
"S.	c #202021",
"T.	c #252527",
"U.	c #838285",
"V.	c #86755D",
"W.	c #715E3F",
"X.	c #7B797C",
"Y.	c #7A7673",
"Z.	c #A1865C",
"`.	c #9B9083",
" +	c #A3A2A7",
".+	c #A7A5A8",
"++	c #A2927C",
"@+	c #9B7E4F",
"#+	c #917444",
"$+	c #A08C6D",
"%+	c #C2C1C4",
"&+	c #47474A",
"*+	c #0A0A0B",
"=+	c #515052",
"-+	c #837B72",
";+	c #766348",
">+	c #6E6D6F",
",+	c #6D6A6A",
"'+	c #755B33",
")+	c #806741",
"!+	c #8E8987",
"~+	c #919195",
"{+	c #8E8B8B",
"]+	c #826E4F",
"^+	c #7E653C",
"/+	c #B1A9A0",
"(+	c #BFBFC4",
"_+	c #3C3C3E",
":+	c #868488",
"<+	c #817565",
"[+	c #5F5C5C",
"}+	c #60574C",
"|+	c #644D28",
"1+	c #6D5227",
"2+	c #756143",
"3+	c #6D5C44",
"4+	c #725B36",
"5+	c #978B7B",
"6+	c #B2B1B4",
"7+	c #C4C4CA",
"8+	c #909094",
"9+	c #141415",
"0+	c #58585C",
"a+	c #87878C",
"b+	c #8C8989",
"c+	c #847663",
"d+	c #6A5533",
"e+	c #604822",
"f+	c #624921",
"g+	c #664D25",
"h+	c #68512B",
"i+	c #6A5534",
"j+	c #90867A",
"k+	c #ADACB0",
"l+	c #BFBFC5",
"m+	c #B6B6BC",
"n+	c #080808",
"o+	c #6C6C71",
"p+	c #85858B",
"q+	c #88878A",
"r+	c #878078",
"s+	c #7D705D",
"t+	c #7B6B53",
"u+	c #776750",
"v+	c #877B6B",
"w+	c #94908F",
"x+	c #9F9FA3",
"y+	c #A7A7AD",
"z+	c #B0B0B6",
"A+	c #B5B5BB",
"B+	c #9F9FA4",
"C+	c #1E1E1F",
"D+	c #111111",
"E+	c #707075",
"F+	c #7E7E83",
"G+	c #66666A",
"H+	c #3D3C3F",
"I+	c #646467",
"J+	c #8D8C90",
"K+	c #939295",
"L+	c #969599",
"M+	c #97969B",
"N+	c #626265",
"O+	c #2B2B2C",
"P+	c #4D4D50",
"Q+	c #8A8A8F",
"R+	c #A3A3A9",
"S+	c #AAAAB0",
"T+	c #909095",
"U+	c #1C1C1D",
"V+	c #2D2D2F",
"W+	c #444447",
"X+	c #151516",
"Y+	c #78787D",
"Z+	c #909096",
"`+	c #94949A",
" @	c #8C8C92",
".@	c #050506",
"+@	c #39393B",
"@@	c #212122",
"#@	c #040405",
"$@	c #4C4C4F",
"%@	c #89898F",
"&@	c #8E8E94",
"*@	c #7A7A7F",
"=@	c #19191A",
"-@	c #010102",
";@	c #161617",
">@	c #85858A",
",@	c #606064",
"'@	c #3F3F42",
")@	c #2F2F31",
". . . . . . . . . + @ # $ . . . % & * . . . . . . ",
". . . . . . . . = - ; > , = = ' ) ! ~ { . . . . . ",
". . . . . * . . ] ^ / ( _ : < [ } } | 1 . . . . . ",
". . . . = 2 3 4 5 6 7 8 9 } } } } } 0 a . . . . . ",
". . . b c d e f g h i j k l m } } } n = . . . . . ",
". . . o p q r s t u v w } x y z } A B * . . . . . ",
". . . = C D E F G H I } } J K L M N O a P = . . . ",
". . . b Q R S T U V W } X Y Z `  .} ..+.@.#.$.. . ",
". . * 3 %.&.*.=.-.;.>.,.'.).!.~.{.].} } } ^./.. . ",
". * (._.:.<.[.}.|.1.2.3.4.5.6.7.8.9.0.a.b.c.d.. . ",
". e.f.g.h.i.j.k.l.m.n.o.p.q.r.s.t.u.v.w.x.y.z.. . ",
". o A.B.C.D.E.F.G.H.I.J.K.L.M.N.O.P.Q.R.S.a % . . ",
". { T.C U.V.W.X.Y.Z.`. +.+++@+#+$+%+&+*+* . . . . ",
". . { $ =+-+;+>+,+'+)+!+~+{+]+^+/+(+_+% . . . . . ",
". . . % @ :+<+[+}+|+1+2+E 3+4+5+6+7+8+9+* . . . . ",
". . . e.0+a+b+c+d+e+f+g+h+i+j+k+^ l+m+R.o . . . . ",
". . . n+o+p+B.q+r+s+t+u+v+w+x+y+z+A+m+B+C+* . . . ",
". . * D+E+F+G+H+I+J+K+L+M+N+O+P+Q+R+S+T+U+* . . . ",
". . . % V+W+9+e.X+Y+Z+`+ @T.o .@' +@G+@@b . . . . ",
". . . . b #@* . .@$@%@&@*@=@-@. * b o { . . . . . ",
". . . . . . . . * ;@*@>@,@' * . . . . . . . . . . ",
". . . . . . . . . = '@&+)@% . . . . . . . . . . . "};
