#define icon_width 64
#define icon_height 64
static char icon_bits[] = {
 0x00,0x00,0x00,0x10,0x00,0x00,0x00,0x00,0x00,0x00,0x00,0x10,0x00,0x00,0x00,
 0x00,0x00,0x00,0x00,0x38,0x00,0x00,0x00,0x00,0x00,0x00,0x00,0x2c,0x00,0x00,
 0x00,0x00,0x00,0x00,0x00,0x26,0x00,0x00,0x00,0x00,0x00,0x00,0x00,0x67,0x00,
 0x00,0x00,0x00,0x00,0x00,0xc0,0xe3,0x00,0x00,0x00,0x00,0x00,0x00,0xe0,0xeb,
 0x00,0x00,0x00,0x00,0x00,0x00,0xf0,0xef,0x01,0x00,0x00,0x00,0x00,0x00,0xf8,
 0xef,0x03,0x00,0x00,0x00,0x00,0x00,0x9c,0xff,0x03,0x00,0x00,0x00,0x00,0x00,
 0xac,0xff,0x07,0x00,0x00,0x00,0x00,0x00,0xfe,0xff,0x07,0x00,0x00,0x00,0x00,
 0x00,0xff,0xff,0x07,0x00,0x00,0x00,0x00,0x00,0xff,0xff,0x07,0x00,0x00,0x00,
 0x00,0x0f,0xfe,0xff,0x07,0xc0,0x03,0x00,0x80,0x1f,0xfe,0xff,0x0b,0xe0,0x07,
 0x00,0x80,0x3f,0xfc,0xff,0x0b,0xe0,0x1f,0x00,0x80,0x7f,0xf8,0xff,0x18,0xe0,
 0x3f,0x00,0x80,0xff,0xc0,0x7f,0x3c,0xc0,0x3f,0x00,0x00,0xff,0x01,0x07,0x3f,
 0x80,0x7f,0x00,0x00,0xfe,0x03,0xfc,0x7f,0x00,0x7e,0x00,0x00,0xe0,0x1f,0xfc,
 0x7f,0x00,0xfc,0x00,0x00,0x80,0x7f,0xfe,0x7f,0x00,0xf8,0x00,0x00,0x00,0xff,
 0xff,0x7f,0x00,0xf8,0x01,0x00,0x00,0xfe,0xff,0x7f,0x00,0xf0,0x01,0x00,0x00,
 0xfc,0xff,0xff,0x00,0xf0,0x01,0x00,0x00,0xfc,0xff,0xff,0x00,0xf0,0x01,0x00,
 0x00,0xf8,0xff,0xff,0x01,0xe0,0x01,0x00,0x00,0xf0,0xff,0xff,0x01,0xe0,0x01,
 0x00,0x00,0xf0,0xff,0xff,0x03,0xe0,0x01,0x00,0x00,0xec,0xff,0xff,0x0f,0xe0,
 0x01,0x00,0x7c,0xdf,0xff,0xff,0x1f,0xe0,0x01,0x00,0xf6,0xbf,0xff,0xff,0xff,
 0xf0,0x00,0x00,0xfa,0x7f,0x8c,0xff,0xff,0xf3,0x00,0x00,0xfe,0x07,0xf0,0xfe,
 0xff,0x77,0x00,0x00,0xe6,0x01,0xe0,0xfd,0xff,0x77,0x00,0x00,0x7c,0x00,0xe0,
 0xff,0xff,0x3f,0x00,0x00,0x00,0x00,0xe0,0xff,0xff,0x3f,0x00,0x00,0x00,0x00,
 0xc0,0xff,0xff,0x0f,0x00,0x00,0x00,0x00,0x80,0xff,0xff,0x0f,0x00,0x00,0x00,
 0x00,0x80,0xff,0xff,0x0f,0x00,0x00,0x00,0x00,0x00,0xff,0xff,0x07,0x00,0x00,
 0x00,0x00,0x00,0xdf,0xff,0x07,0x00,0x00,0x00,0x00,0x00,0xdf,0xff,0x03,0x00,
 0x00,0x00,0x00,0x00,0xbe,0xff,0x03,0x00,0x00,0x00,0x00,0x00,0x7e,0xff,0x03,
 0x00,0x00,0x00,0x00,0x00,0x7e,0xff,0x07,0x00,0x00,0x00,0x00,0x00,0xfc,0xfe,
 0x0f,0x00,0x00,0x00,0x00,0x00,0xfc,0xfd,0x0f,0x00,0x00,0x00,0x00,0x00,0xf8,
 0xfd,0x0f,0x00,0x00,0x00,0x00,0x00,0xf0,0xfb,0x0f,0x00,0x00,0x00,0x00,0x00,
 0xc0,0xf3,0x0f,0x00,0x00,0x00,0x00,0x00,0x80,0xe7,0x07,0x00,0x00,0x00,0x00,
 0x00,0x80,0xe7,0x07,0x00,0x00,0x00,0x00,0x00,0x80,0xe7,0x07,0x00,0x00,0x00,
 0x00,0x00,0x80,0xe7,0x07,0x00,0x00,0x00,0x00,0x00,0xe0,0xc3,0x03,0x00,0x00,
 0x00,0x00,0x00,0xf8,0xc1,0x03,0x00,0x00,0x00,0x00,0x00,0xfc,0xe1,0x07,0x00,
 0x00,0x00,0x00,0x00,0xfc,0xf0,0x07,0x00,0x00,0x00,0x00,0x00,0x00,0xf0,0x03,
 0x00,0x00,0x00,0x00,0x00,0x00,0xf0,0x03,0x00,0x00,0x00,0x00,0x00,0x00,0xf0,
 0x03,0x00};
